<?xml version="1.0" encoding="UTF-8" standalone="no"?> <svg width="512" height="512" viewBox="0 0 512 512" fill="none" xmlns="http://www.w3.org/2000/svg">
<path d="M405.333 32H106.667C103.865 31.9999 101.091 32.5516 98.5029 33.6236C95.9146 34.6956 93.5627 36.267 91.5816 38.2479C89.6006 40.2289 88.0291 42.5807 86.957 45.169C85.8848 47.7573 85.333 50.5314 85.333 53.333V473.259C85.333 474.168 85.5654 475.062 86.008 475.856C86.4507 476.65 87.089 477.318 87.8623 477.796C88.6356 478.273 89.5182 478.546 90.4263 478.587C91.3344 478.627 92.2379 478.436 93.051 478.029L120.844 464.129C123.066 463.018 125.516 462.44 128 462.44C130.483 462.44 132.933 463.018 135.155 464.129L163.511 478.307C165.733 479.418 168.183 479.996 170.667 479.996C173.15 479.996 175.6 479.418 177.822 478.307L206.178 464.129C208.4 463.018 210.85 462.44 213.334 462.44C215.817 462.44 218.267 463.018 220.489 464.129L248.845 478.307C251.067 479.418 253.517 479.996 256.001 479.996C258.484 479.996 260.934 479.418 263.156 478.307L291.509 464.13C293.731 463.019 296.181 462.441 298.665 462.441C301.148 462.441 303.598 463.019 305.82 464.13L334.178 478.308C336.4 479.419 338.849 479.997 341.333 479.997C343.817 479.997 346.266 479.419 348.488 478.308L376.845 464.13C379.067 463.019 381.517 462.441 384 462.441C386.484 462.441 388.934 463.019 391.156 464.13L418.949 478.03C419.762 478.437 420.666 478.629 421.574 478.588C422.482 478.547 423.364 478.274 424.138 477.797C424.911 477.319 425.549 476.651 425.992 475.857C426.435 475.063 426.667 474.169 426.667 473.26V53.333C426.667 50.5314 426.115 47.7573 425.043 45.169C423.971 42.5807 422.399 40.2289 420.418 38.2479C418.437 36.267 416.085 34.6956 413.497 33.6236C410.909 32.5516 408.135 31.9999 405.333 32V32Z" fill="#00CF66"/>
<path d="M138 53.33C138 47.6729 140.247 42.2476 144.247 38.2474C148.248 34.2473 153.673 32 159.33 32H106.667C103.865 31.9999 101.091 32.5516 98.5029 33.6236C95.9146 34.6956 93.5627 36.267 91.5816 38.2479C89.6006 40.2289 88.0291 42.5807 86.957 45.169C85.8848 47.7573 85.333 50.5314 85.333 53.333V473.259C85.3329 474.168 85.5653 475.062 86.008 475.856C86.4507 476.651 87.0891 477.318 87.8625 477.796C88.636 478.274 89.5187 478.546 90.427 478.587C91.3353 478.628 92.2389 478.436 93.052 478.029L120.845 464.129C123.067 463.018 125.517 462.44 128.001 462.44C130.484 462.44 132.934 463.018 135.156 464.129L138 465.555V53.33Z" fill="#00B157"/>
<path d="M405.333 21.333H106.667C98.1829 21.3423 90.049 24.7167 84.0498 30.7158C78.0506 36.715 74.6763 44.8489 74.667 53.333V473.26C74.6666 475.988 75.3635 478.67 76.6914 481.052C78.0194 483.435 79.9344 485.438 82.2545 486.872C84.5747 488.307 87.2229 489.124 89.9477 489.246C92.6725 489.369 95.3834 488.793 97.823 487.573L125.609 473.673C126.35 473.302 127.168 473.109 127.997 473.109C128.826 473.109 129.644 473.302 130.385 473.673L158.744 487.855C162.45 489.695 166.531 490.652 170.668 490.652C174.806 490.652 178.887 489.695 182.593 487.855L210.942 473.673C211.683 473.302 212.501 473.109 213.33 473.109C214.159 473.109 214.977 473.302 215.718 473.673L244.077 487.855C247.783 489.695 251.864 490.652 256.001 490.652C260.139 490.652 264.22 489.695 267.926 487.855L296.285 473.673C297.024 473.303 297.839 473.111 298.665 473.111C299.491 473.111 300.306 473.303 301.045 473.673L329.41 487.855C333.116 489.695 337.197 490.652 341.335 490.652C345.472 490.652 349.553 489.695 353.259 487.855L381.608 473.673C382.349 473.302 383.167 473.109 383.996 473.109C384.825 473.109 385.643 473.302 386.384 473.673L414.184 487.573C416.623 488.792 419.334 489.367 422.058 489.244C424.782 489.12 427.429 488.303 429.748 486.869C432.068 485.436 433.982 483.433 435.31 481.051C436.638 478.669 437.335 475.988 437.335 473.261V53.333C437.326 44.8486 433.951 36.7143 427.951 30.7151C421.952 24.7159 413.817 21.3417 405.333 21.333V21.333ZM416 464.63L395.922 454.588C392.216 452.748 388.135 451.791 383.997 451.791C379.86 451.791 375.779 452.748 372.073 454.588L343.724 468.77C342.982 469.139 342.165 469.331 341.336 469.331C340.507 469.331 339.69 469.139 338.948 468.77L310.583 454.588C306.878 452.747 302.797 451.789 298.66 451.79C294.523 451.791 290.443 452.75 286.739 454.593L258.39 468.77C257.648 469.139 256.831 469.331 256.002 469.331C255.173 469.331 254.356 469.139 253.614 468.77L225.255 454.588C221.549 452.748 217.468 451.791 213.331 451.791C209.193 451.791 205.112 452.748 201.406 454.588L173.057 468.77C172.315 469.139 171.498 469.331 170.669 469.331C169.84 469.331 169.023 469.139 168.281 468.77L139.922 454.588C136.216 452.748 132.135 451.791 127.997 451.791C123.86 451.791 119.779 452.748 116.073 454.588L96 464.63V53.333C96.0032 50.5049 97.128 47.7936 99.1278 45.7938C101.128 43.794 103.839 42.6692 106.667 42.666H405.333C408.161 42.6692 410.872 43.794 412.872 45.7938C414.872 47.7936 415.997 50.5049 416 53.333V464.63Z" fill="black"/>
<path d="M245.479 209.964C247.812 210.849 249.932 211.649 251.698 212.428C254.042 213.462 256.75 214.501 259.651 215.61C276.251 221.951 288 227.436 288 240.31C288 246.932 282.161 254.336 273.479 258.729C257.635 266.747 237.526 263.685 219.651 250.542C218.523 249.709 217.241 249.107 215.88 248.771C214.519 248.434 213.105 248.369 211.719 248.579C210.333 248.789 209.001 249.271 207.801 249.996C206.601 250.721 205.556 251.676 204.726 252.806C203.895 253.935 203.295 255.218 202.961 256.579C202.626 257.941 202.564 259.355 202.777 260.741C202.989 262.127 203.473 263.458 204.201 264.656C204.928 265.855 205.885 266.898 207.016 267.727C219.189 276.681 232.338 282.044 245.334 283.8V298.665C245.361 301.476 246.497 304.163 248.494 306.141C250.492 308.119 253.189 309.229 256 309.229C258.812 309.229 261.509 308.119 263.507 306.141C265.504 304.163 266.64 301.476 266.667 298.665V283.265C272.378 282.214 277.914 280.364 283.11 277.771C299.287 269.584 309.334 255.232 309.334 240.313C309.334 211.753 283.001 201.693 267.266 195.683C264.73 194.712 262.355 193.813 260.308 192.91C258.261 192.007 255.777 191.056 253.053 190.022C237.153 183.986 224.001 177.941 224.001 165.022C224.001 158.4 229.84 150.996 238.522 146.603C254.361 138.59 274.475 141.65 292.35 154.791C294.63 156.466 297.481 157.168 300.278 156.74C303.075 156.313 305.587 154.792 307.262 152.513C308.938 150.233 309.639 147.381 309.212 144.584C308.784 141.788 307.264 139.275 304.984 137.6C292.811 128.649 279.661 123.229 266.666 121.474V106.667C266.68 105.258 266.414 103.859 265.884 102.553C265.354 101.247 264.57 100.059 263.579 99.0576C262.587 98.0561 261.406 97.2612 260.105 96.7186C258.804 96.1761 257.409 95.8967 255.999 95.8967C254.59 95.8967 253.194 96.1761 251.893 96.7186C250.593 97.2612 249.412 98.0561 248.42 99.0576C247.428 100.059 246.645 101.247 246.115 102.553C245.585 103.859 245.319 105.258 245.333 106.667V122.015C239.619 123.086 234.084 124.954 228.89 127.566C212.713 135.751 202.666 150.102 202.666 165.022C202.667 193.708 230.516 204.284 245.479 209.964Z" fill="black"/>
<path d="M341.333 330.667H170.667C169.258 330.653 167.859 330.919 166.553 331.449C165.247 331.979 164.059 332.763 163.058 333.754C162.056 334.746 161.261 335.927 160.719 337.228C160.176 338.528 159.897 339.924 159.897 341.334C159.897 342.743 160.176 344.139 160.719 345.439C161.261 346.74 162.056 347.921 163.058 348.913C164.059 349.904 165.247 350.688 166.553 351.218C167.859 351.748 169.258 352.014 170.667 352H341.333C342.742 352.014 344.141 351.748 345.447 351.218C346.753 350.688 347.941 349.904 348.942 348.913C349.944 347.921 350.739 346.74 351.281 345.439C351.824 344.139 352.103 342.743 352.103 341.334C352.103 339.924 351.824 338.528 351.281 337.228C350.739 335.927 349.944 334.746 348.942 333.754C347.941 332.763 346.753 331.979 345.447 331.449C344.141 330.919 342.742 330.653 341.333 330.667V330.667Z" fill="black"/>
<path d="M341.333 373.333H170.667C169.258 373.319 167.859 373.585 166.553 374.115C165.247 374.645 164.059 375.429 163.058 376.42C162.056 377.412 161.261 378.593 160.719 379.894C160.176 381.194 159.897 382.59 159.897 384C159.897 385.409 160.176 386.805 160.719 388.105C161.261 389.406 162.056 390.587 163.058 391.579C164.059 392.57 165.247 393.354 166.553 393.884C167.859 394.414 169.258 394.68 170.667 394.666H341.333C342.742 394.68 344.141 394.414 345.447 393.884C346.753 393.354 347.941 392.57 348.942 391.579C349.944 390.587 350.739 389.406 351.281 388.105C351.824 386.805 352.103 385.409 352.103 384C352.103 382.59 351.824 381.194 351.281 379.894C350.739 378.593 349.944 377.412 348.942 376.42C347.941 375.429 346.753 374.645 345.447 374.115C344.141 373.585 342.742 373.319 341.333 373.333V373.333Z" fill="black"/>
</svg>
