<?xml version="1.0" encoding="UTF-8" standalone="no"?> <svg xmlns="http://www.w3.org/2000/svg" viewBox="0 0 64 64"><g id="Linear_color_ok" data-name="Linear color ok"><polygon points="58 15 58 62 52 62 52 25 12 25 12 62 5 62 5 15 32 2 58 15" style="fill:#e6e7e8"/><polygon points="32 2 58 15 58 62 52 62 52 25 32 25 32 2" style="fill:#d1d3d4"/><rect x="16" y="15" width="32" height="6" style="fill:#bcbec0"/><rect x="32" y="15" width="16" height="6" style="fill:#a7a9ac"/><rect x="12" y="29" width="40" height="4" style="fill:#a7a9ac"/><rect x="32" y="29" width="20" height="4" style="fill:#939598"/><rect x="12" y="25" width="40" height="4" style="fill:#808285"/><rect x="9" y="50" width="12" height="12" style="fill:#e5a961"/><rect x="15" y="50" width="6" height="12" style="fill:#d6914c;opacity:0.4"/><rect x="32" y="25" width="20" height="4" style="fill:#6d6e71"/><polygon points="61 52 61 59 31 59 31 52 51 52 51 44 58 44 61 52" style="fill:#879fa3"/><polygon points="61 52 54 52 54 45 58.38 45 61 52" style="fill:#e6e7e8"/><circle cx="56" cy="59" r="3" style="fill:#414042"/><circle cx="37" cy="59" r="3" style="fill:#414042"/><circle cx="37" cy="59" r="1" style="fill:#e6e7e8"/><circle cx="56" cy="59" r="1" style="fill:#e6e7e8"/><rect x="35" y="40" width="12" height="12" style="fill:#e5a961"/><rect x="41" y="40" width="6" height="12" style="fill:#d6914c;opacity:0.4"/><path d="M5,63a1,1,0,0,1-1-1V15a1,1,0,0,1,.566-.9l27-13a1,1,0,0,1,.868,0l27,13A1,1,0,0,1,60,15V40a1,1,0,0,1-2,0V15.628L32,3.11,6,15.628V62A1,1,0,0,1,5,63Z" style="fill:#231f20"/><path d="M12,47a1,1,0,0,1-1-1V25a1,1,0,0,1,1-1H52a1,1,0,0,1,1,1V40a1,1,0,0,1-2,0V26H13V46A1,1,0,0,1,12,47Z" style="fill:#231f20"/><path d="M52,30H12a1,1,0,0,1-1-1V25a1,1,0,0,1,1-1H52a1,1,0,0,1,1,1v4A1,1,0,0,1,52,30ZM13,28H51V26H13Z" style="fill:#231f20"/><path d="M52,34H12a1,1,0,0,1-1-1V29a1,1,0,0,1,1-1H52a1,1,0,0,1,1,1v4A1,1,0,0,1,52,34ZM13,32H51V30H13Z" style="fill:#231f20"/><path d="M48,22H16a1,1,0,0,1-1-1V15a1,1,0,0,1,1-1H48a1,1,0,0,1,1,1v6A1,1,0,0,1,48,22ZM17,20H47V16H17Z" style="fill:#231f20"/><path d="M21,63H9a1,1,0,0,1-1-1V50a1,1,0,0,1,1-1H21a1,1,0,0,1,1,1V62A1,1,0,0,1,21,63ZM10,61H20V51H10Z" style="fill:#231f20"/><path d="M15,54a1,1,0,0,1-1-1V50a1,1,0,0,1,2,0v3A1,1,0,0,1,15,54Z" style="fill:#231f20"/><path d="M47,53H35a1,1,0,0,1-1-1V40a1,1,0,0,1,1-1H47a1,1,0,0,1,1,1V52A1,1,0,0,1,47,53ZM36,51H46V41H36Z" style="fill:#231f20"/><path d="M41,44a1,1,0,0,1-1-1V40a1,1,0,0,1,2,0v3A1,1,0,0,1,41,44Z" style="fill:#231f20"/><path d="M58,53H54a1,1,0,0,1-1-1V44a1,1,0,0,1,2,0v7h3a1,1,0,0,1,0,2Z" style="fill:#231f20"/><path d="M61,60H59a1,1,0,0,1,0-2h1V52.181L57.307,45H52v7a1,1,0,0,1-1,1H32v5h2a1,1,0,0,1,0,2H31a1,1,0,0,1-1-1V52a1,1,0,0,1,1-1H50V44a1,1,0,0,1,1-1h7a1,1,0,0,1,.937.649l3,8A1,1,0,0,1,62,52v7A1,1,0,0,1,61,60Z" style="fill:#231f20"/><path d="M53,60H40a1,1,0,0,1,0-2H53a1,1,0,0,1,0,2Z" style="fill:#231f20"/><path d="M37,63a4,4,0,1,1,4-4A4,4,0,0,1,37,63Zm0-6a2,2,0,1,0,2,2A2,2,0,0,0,37,57Z" style="fill:#231f20"/><path d="M56,63a4,4,0,1,1,4-4A4,4,0,0,1,56,63Zm0-6a2,2,0,1,0,2,2A2,2,0,0,0,56,57Z" style="fill:#231f20"/><path d="M62,63H2a1,1,0,0,1,0-2H62a1,1,0,0,1,0,2Z" style="fill:#231f20"/></g></svg>